<?xml version="1.0" encoding="UTF-8" standalone="no"?>
<svg
   xmlns:dc="http://purl.org/dc/elements/1.1/"
   xmlns:cc="http://creativecommons.org/ns#"
   xmlns:rdf="http://www.w3.org/1999/02/22-rdf-syntax-ns#"
   xmlns:svg="http://www.w3.org/2000/svg"
   xmlns="http://www.w3.org/2000/svg"
   xmlns:sodipodi="http://sodipodi.sourceforge.net/DTD/sodipodi-0.dtd"
   xmlns:inkscape="http://www.inkscape.org/namespaces/inkscape"
   version="1.1"
   x="0px"
   y="0px"
   viewBox="0 0 100 65.196991"
   enable-background="new 0 0 100 100"
   xml:space="preserve"
   id="svg3354"
   inkscape:version="0.91 r13725"
   sodipodi:docname="logo.svg"
   width="100"
   height="65.196991"><metadata
     id="metadata3370"><rdf:RDF><cc:Work
         rdf:about=""><dc:format>image/svg+xml</dc:format><dc:type
           rdf:resource="http://purl.org/dc/dcmitype/StillImage" /><dc:title></dc:title></cc:Work></rdf:RDF></metadata><defs
     id="defs3368" /><sodipodi:namedview
     pagecolor="#ffffff"
     bordercolor="#666666"
     borderopacity="1"
     objecttolerance="10"
     gridtolerance="10"
     guidetolerance="10"
     inkscape:pageopacity="0"
     inkscape:pageshadow="2"
     inkscape:window-width="1280"
     inkscape:window-height="657"
     id="namedview3366"
     showgrid="false"
     fit-margin-top="0"
     fit-margin-left="0"
     fit-margin-right="0"
     fit-margin-bottom="0"
     inkscape:zoom="1.888"
     inkscape:cx="223.19915"
     inkscape:cy="-4.795182"
     inkscape:window-x="-8"
     inkscape:window-y="-8"
     inkscape:window-maximized="1"
     inkscape:current-layer="svg3354" />
	<defs>
		<linearGradient id="gradient" x1="0%" y1="0%" x2="100%" y2="0">
			<stop offset="0%" style="stop-color:transparent;"/>
			<stop offset="50%" style="stop-color:#000080;"/>
			<stop offset="100%" style="stop-color:transparent"/>
		</linearGradient>
		<pattern id="pattern" x="0" y="0" width="300%" height="100%" patternUnits="userSpaceOnUse">
			<rect x="0" y="0" width="150%" height="100%" fill="url(#gradient)">
				<animate attributeType="XML"
						 attributeName="x"
						 from="0" to="150%"
						 dur="7s"
						 repeatCount="indefinite"/>
			</rect>
			<rect x="-150%" y="0" width="150%" height="100%" fill="url(#gradient)">
				<animate attributeType="XML"
						 attributeName="x"
						 from="-150%" to="0"
						 dur="7s"
						 repeatCount="indefinite"/>
			</rect>
		</pattern>
	</defs>
	<path
     d="m 70.79,20.778107 5.457997,-9.459 L 61.355,2.7201068 C 51.655,-2.8788934 39.23,0.44110681 33.626,10.150107 l 3.25,1.877 C 39.459,7.5431068 45.193,6.0071068 49.68,8.5951068 l 4.867,2.8080002 -11.725,20.31 -1.622,-0.934 -15.001,25.977 c -1.552,2.691 -0.634,6.133 2.057,7.684 2.697,1.558 6.136,0.633 7.688,-2.061 l 14.995,-25.976 -1.617,-0.937 11.724,-20.31 9.744,5.622 z"
		  fill= "url(#pattern)"
     id="path3356"
     inkscape:connector-curvature="0" />
	<path
     d="m 20.633,46.033107 c -0.473,0 -0.95,-0.12 -1.384,-0.369 l -17.86,-10.312 c -0.862,-0.497 -1.389,-1.414 -1.389,-2.407 0,-0.993 0.527,-1.91 1.389,-2.406 l 17.86,-10.311 c 1.324,-0.767 3.023,-0.312 3.792,1.017 0.771,1.329 0.315,3.027 -1.015,3.794 l -13.693,7.906 13.693,7.906 c 1.33,0.765 1.785,2.463 1.015,3.792 -0.515,0.893 -1.449,1.39 -2.408,1.39 z"
		  fill= "url(#pattern)"
     id="path3358"
     inkscape:connector-curvature="0" />
	<path
     d="m 79.360997,48.810107 c -0.959,0 -1.893,-0.497 -2.408,-1.389 -0.765,-1.329 -0.31,-3.028 1.02,-3.792 l 13.694,-7.906 -13.694,-7.905 c -1.329,-0.768 -1.784,-2.466 -1.02,-3.794 0.771,-1.329 2.468,-1.784 3.797,-1.017 l 17.861,10.311 c 0.857,0.497 1.389,1.414 1.389,2.406 0,0.992 -0.531,1.91 -1.389,2.405 l -17.861,10.312 c -0.438,0.25 -0.916,0.369 -1.389,0.369 z"
		  fill= "url(#pattern)"
     id="path3360"
     inkscape:connector-curvature="0" />
</svg>
